<svg width="262" height="582" viewBox="0 0 262 582" fill="none" xmlns="http://www.w3.org/2000/svg">
<g clip-path="url(#clip0_107_1273)">
<path d="M191.94 0C194.971 0 198.001 5.96046e-08 201.443 0.347856C200.111 2.39339 198.507 4.26974 196.599 5.75555C190.667 10.3738 186.34 16.1498 186.185 23.7462C186.074 29.1383 187.295 34.6177 188.391 39.9621C190.629 50.8799 194.126 61.6226 195.415 72.6352C198.274 97.0662 191.722 112.701 167.169 120.859C161.076 122.883 154.551 126.569 150.585 131.421C142.208 141.666 134.004 152.503 128.191 164.309C110.745 199.741 106.036 237.754 109.332 276.762C111.361 300.782 119.708 322.702 136.382 340.466C145.688 350.381 156.272 359.147 166.656 367.988C179.849 379.22 190.418 392.334 196.625 408.547C205.093 430.667 207.536 453.883 206.875 477.32C206.077 505.596 209.971 533.113 217.596 560.239C219.616 567.426 221.171 574.743 222.94 582C191.919 582 160.898 582 129.376 581.671C128.357 579.443 127.963 577.5 127.304 575.651C119.369 553.397 114.326 530.494 112.862 506.928C111.53 485.489 111.704 463.933 109.77 442.559C106.77 409.383 92.49 381.953 64.6846 362.534C33.82 340.977 17.329 311.007 14.0971 274.007C10.7612 235.815 16.9808 198.896 32.7461 163.823C42.5107 142.1 56.5042 124.731 80.5234 117.165C85.6416 115.553 90.4851 110.972 93.9295 106.566C101.833 96.4561 102.486 84.2846 100.351 72.1954C98.2684 60.4036 95.3479 48.7443 92.4206 37.1212C89.0013 23.5445 92.0038 12.4512 103.747 4.14743C105.108 3.18483 105.89 1.40236 106.94 9.53674e-07C126.628 -4.63257e-08 146.315 -4.47035e-08 166.854 0.155955C175.783 0.20794 183.862 0.10397 191.94 0Z" fill="#017893"/>
<path d="M223.409 582C221.171 574.743 219.616 567.426 217.596 560.239C209.971 533.113 206.077 505.596 206.875 477.32C207.537 453.883 205.093 430.667 196.625 408.547C190.419 392.334 179.849 379.22 166.656 367.988C156.272 359.147 145.688 350.381 136.382 340.466C119.709 322.702 111.361 300.782 109.332 276.762C106.036 237.754 110.745 199.741 128.191 164.309C134.004 152.503 142.208 141.666 150.585 131.421C154.551 126.569 161.076 122.883 167.169 120.859C191.722 112.701 198.274 97.0662 195.415 72.6352C194.126 61.6226 190.629 50.8799 188.391 39.9621C187.295 34.6177 186.074 29.1383 186.185 23.7462C186.341 16.1498 190.667 10.3738 196.599 5.75555C198.507 4.26974 200.111 2.39339 201.898 0.347856C221.887 5.96046e-08 241.833 0 261.94 0C261.94 34.0207 261.94 68.0417 261.56 102.567C254.297 106.683 246.833 109.505 240.643 114.058C224.439 125.977 215.643 143.418 209.135 161.696C197.496 194.381 192.13 228.108 196.002 262.911C198.392 284.388 204.884 304.644 218.896 321.154C229.155 333.241 241.698 343.406 253.386 354.251C255.874 356.559 259.07 358.104 261.94 360C261.94 434 261.94 508 261.94 582C249.168 582 236.523 582 223.409 582Z" fill="#57AFC7"/>
<path d="M106.472 9.54007e-07C105.89 1.40236 105.108 3.18483 103.747 4.14743C92.0039 12.4512 89.0014 23.5445 92.4207 37.1212C95.3479 48.7443 98.2685 60.4036 100.351 72.1954C102.486 84.2846 101.833 96.4561 93.9295 106.566C90.4852 110.972 85.6417 115.553 80.5235 117.165C56.5043 124.731 42.5107 142.1 32.7462 163.823C16.9809 198.896 10.7613 235.815 14.0972 274.007C17.3291 311.007 33.82 340.977 64.6846 362.534C92.4901 381.953 106.77 409.383 109.771 442.559C111.704 463.933 111.53 485.489 112.862 506.928C114.327 530.494 119.369 553.397 127.304 575.651C127.963 577.5 128.357 579.443 128.907 581.671C85.9633 582 42.9863 582 0.004673 582C4.19095e-09 388 0 194 0 3.3309e-10C35.3741 3.3309e-10 70.6886 -4.59926e-08 106.472 9.54007e-07Z" fill="#093945"/>
<path d="M261.94 359.531C259.07 358.104 255.874 356.56 253.386 354.251C241.698 343.406 229.154 333.242 218.896 321.154C204.884 304.644 198.391 284.388 196.002 262.912C192.13 228.108 197.496 194.381 209.134 161.696C215.643 143.418 224.439 125.978 240.642 114.058C246.833 109.505 254.297 106.683 261.56 103.036C261.94 188.354 261.94 273.709 261.94 359.531Z" fill="#5CBFDE"/>
</g>
<defs>
<clipPath id="clip0_107_1273">
<rect width="262" height="582" fill="white"/>
</clipPath>
</defs>
</svg>
