<svg width="1920" height="1080" viewBox="0 0 1920 1080" fill="none" xmlns="http://www.w3.org/2000/svg">
    <g clip-path="url(#clip0_2039_1151)">
        <rect width="1920" height="1080" fill="#093945" />
        <path
            d="M448.941 29.0878C472.565 66.9327 546.677 155.112 370.644 178.231C150.603 207.131 62.5131 409.967 128.328 502.837C247.63 671.181 547.871 582.932 531.049 861.613C525.832 948.041 677.082 1154.11 828.276 1162.37C979.47 1170.63 1254.86 1096.31 1277.13 1016.32C1299.41 936.334 1355.43 58.5036 1255.53 -1.36014C1155.64 -61.2239 347.02 -99.9289 448.941 29.0878Z"
            fill="#007893" />
        <path
            d="M856.941 29.0878C880.565 66.9327 954.677 155.112 778.644 178.231C558.603 207.131 470.513 409.967 536.328 502.837C655.63 671.181 955.871 582.932 939.049 861.613C933.832 948.041 1085.08 1154.11 1236.28 1162.37C1387.47 1170.63 1662.86 1096.31 1685.13 1016.32C1707.41 936.334 1763.43 58.5036 1663.53 -1.36014C1563.64 -61.2239 755.02 -99.9289 856.941 29.0878Z"
            fill="#57AFC7" />
        <path
            d="M1227.94 3.08782C1251.57 40.9327 1325.68 129.112 1149.64 152.231C929.603 181.131 841.513 383.967 907.328 476.837C1026.63 645.181 1326.87 556.932 1310.05 835.613C1304.83 922.041 1456.08 1128.11 1607.28 1136.37C1758.47 1144.63 2033.86 1070.31 2056.13 990.324C2078.41 910.334 2134.43 32.5036 2034.53 -27.3601C1934.64 -87.2239 1126.02 -125.929 1227.94 3.08782Z"
            fill="#5DBFDE" />
    </g>
    <defs>
        <clipPath id="clip0_2039_1151">
            <rect width="1920" height="1080" fill="white" />
        </clipPath>
    </defs>
</svg>