<svg width="24" height="24" viewBox="0 0 24 24" fill="none" xmlns="http://www.w3.org/2000/svg">
<path d="M12 0C7.79455 0 4.36364 3.28174 4.36364 7.30435C4.36364 9.78678 5.68364 11.9833 7.67018 13.3043C3.192 14.976 0 19.1499 0 24H2.18182C2.18182 19.4108 5.66291 15.575 10.2273 14.7715L10.9091 16.6957H13.0909L13.7727 14.7715C18.3371 15.575 21.8182 19.4108 21.8182 24H24C24 19.1499 20.808 14.976 16.3298 13.3043C18.3153 11.9833 19.6364 9.78678 19.6364 7.30435C19.6364 3.28174 16.2055 0 12 0ZM12 2.08696C15.0251 2.08696 17.4545 4.41078 17.4545 7.30435C17.4545 10.1979 15.0251 12.5217 12 12.5217C8.97491 12.5217 6.54545 10.1979 6.54545 7.30435C6.54545 4.41078 8.97491 2.08696 12 2.08696ZM10.9091 17.7391L9.81818 24H14.1818L13.0909 17.7391H10.9091Z" fill="#007893"/>
</svg>
