<svg width="28" height="28" viewBox="0 0 28 28" fill="none" xmlns="http://www.w3.org/2000/svg">
<path d="M19.3847 25.1795L16.5955 22.5895L15.077 23.9995L19.3847 27.9995L28.0001 19.9995L26.4816 18.5895L19.3847 25.1795ZM5.3847 14.9995H12.9232V16.9995H5.3847V14.9995ZM5.3847 9.99951H18.3078V11.9995H5.3847V9.99951ZM5.3847 4.99951H18.3078V6.99951H5.3847V4.99951Z" fill="#757575"/>
<path d="M12.9231 28H2.15385C0.966 28 0 27.103 0 26V2C0 0.897 0.966 0 2.15385 0H21.5385C22.7263 0 23.6923 0.897 23.6923 2V17H21.5385V2H2.15385V26H12.9231V28Z" fill="#757575"/>
</svg>
