<svg width="26" height="26" viewBox="0 0 26 26" fill="none" xmlns="http://www.w3.org/2000/svg">
<path d="M16.5294 1H2.41176C2.03734 1 1.67825 1.12643 1.4135 1.35147C1.14874 1.57652 1 1.88174 1 2.2V23.8C1 24.1183 1.14874 24.4235 1.4135 24.6485C1.67825 24.8736 2.03734 25 2.41176 25H22.1765C22.5509 25 22.91 24.8736 23.1747 24.6485C23.4395 24.4235 23.5882 24.1183 23.5882 23.8V10.603" stroke="#007893" stroke-width="2" stroke-linecap="round" stroke-linejoin="round"/>
<path d="M5.23535 9.3999H10.8824ZM5.23535 15.3999H13.7059Z" fill="#007893"/>
<path d="M5.23535 9.3999H10.8824M5.23535 15.3999H13.7059" stroke="#007893" stroke-width="2" stroke-linecap="round"/>
<path d="M25 2.20068L16.5315 9.39768" stroke="#007893" stroke-width="2" stroke-linecap="round" stroke-linejoin="round"/>
</svg>
