<svg width="24" height="24" viewBox="0 0 24 24" fill="none" xmlns="http://www.w3.org/2000/svg">
<path fill-rule="evenodd" clip-rule="evenodd" d="M2.25 12C2.25 6.616 6.616 2.25 12 2.25C14.4661 2.24941 16.8401 3.18719 18.64 4.873C18.7138 4.94175 18.7729 5.02466 18.8139 5.11678C18.8549 5.20891 18.8769 5.30836 18.8786 5.40917C18.8802 5.50999 18.8616 5.61012 18.8237 5.70356C18.7858 5.797 18.7294 5.88183 18.658 5.953L16.113 8.498C15.9777 8.63334 15.7958 8.71184 15.6045 8.71742C15.4132 8.723 15.227 8.65523 15.084 8.528C14.2361 7.76899 13.138 7.34953 12 7.35C10.7667 7.35 9.584 7.83991 8.71195 8.71195C7.83991 9.584 7.35 10.7667 7.35 12C7.35 13.2333 7.83991 14.416 8.71195 15.288C9.584 16.1601 10.7667 16.65 12 16.65C12.7708 16.6503 13.5295 16.4584 14.2074 16.0917C14.8854 15.7251 15.4613 15.1952 15.883 14.55H12C11.8011 14.55 11.6103 14.471 11.4697 14.3303C11.329 14.1897 11.25 13.9989 11.25 13.8V10.2C11.25 10.0011 11.329 9.81032 11.4697 9.66967C11.6103 9.52902 11.8011 9.45 12 9.45H20.825C20.9986 9.44992 21.1669 9.51009 21.3011 9.62023C21.4354 9.73038 21.5272 9.88369 21.561 10.054C21.6862 10.6951 21.7495 11.3468 21.75 12C21.75 17.384 17.384 21.75 12 21.75C6.616 21.75 2.25 17.384 2.25 12ZM12 3.75C10.3235 3.75043 8.68698 4.26158 7.30829 5.2154C5.92961 6.16922 4.87422 7.52043 4.2827 9.08907C3.69118 10.6577 3.59158 12.3693 3.99719 13.996C4.40279 15.6227 5.29434 17.0872 6.55311 18.1944C7.81187 19.3017 9.37809 19.9992 11.0432 20.1941C12.7083 20.3889 14.3933 20.0719 15.8737 19.2852C17.3541 18.4984 18.5597 17.2793 19.3299 15.7903C20.1001 14.3012 20.3984 12.6128 20.185 10.95H12.75V13.05H17.086C17.206 13.05 17.3242 13.0788 17.4307 13.134C17.5373 13.1891 17.629 13.2691 17.6983 13.367C17.7676 13.465 17.8123 13.5781 17.8288 13.697C17.8453 13.8158 17.833 13.9369 17.793 14.05C17.3089 15.4164 16.3574 16.5678 15.1068 17.3008C13.8561 18.0339 12.3867 18.3014 10.9579 18.0561C9.52916 17.8109 8.23302 17.0687 7.29839 15.9605C6.36376 14.8524 5.85077 13.4496 5.85 12C5.85 10.3689 6.49794 8.80464 7.65129 7.65129C8.80464 6.49794 10.3689 5.85 12 5.85C13.313 5.85 14.527 6.265 15.524 6.966L17.023 5.466C15.5857 4.35204 13.8184 3.74829 12 3.75Z" fill="#007893"/>
</svg>
