<svg width="90" height="96" viewBox="0 0 90 96" fill="none" xmlns="http://www.w3.org/2000/svg">
<path d="M60.5368 28.6876C67.9294 30.6325 71.6258 35.0086 71.6258 41.4512C71.6258 46.3742 70.2705 51.115 65.342 54.0324C60.7216 56.7674 53.0825 57.3144 44.8273 57.3144C36.8801 57.3144 29.7955 57.1929 25.4831 54.7009C20.185 51.5404 18.46 46.982 18.5216 42.4236L21.9716 42.5452H22.4644C24.3126 51.115 27.3313 51.4189 30.2883 52.3306C34.4159 53.5462 39.1596 53.7285 43.1023 53.7285C48.4004 53.7285 56.286 53.2422 59.243 52.3913C65.9581 50.5072 67.067 46.2527 67.067 43.5176C67.067 40.6003 66.7589 34.887 62.1385 33.1245C53.8833 29.964 33.1838 31.1188 25.7911 27.9583C18.46 24.7978 18.8297 19.51 18.5216 15.1947C18.2136 10.8794 20.3698 6.50334 25.6679 3.52517C30.658 0.790127 39.406 0 45.3817 0C52.6512 0 61.5841 1.82337 65.5268 4.13296C70.5169 7.05035 71.6874 10.3324 71.3178 15.6202L67.5598 15.8025C67.5598 14.5261 67.4366 11.0617 66.5125 9.54228C65.2188 7.23268 60.5368 4.13296 45.8746 4.13296C31.7053 4.13296 28.5634 6.56411 26.284 7.90125C23.3269 9.66383 22.8956 14.1615 22.8956 14.1615C22.8956 16.7142 22.7108 22.3666 27.3313 24.6762C34.2927 28.3229 53.3905 26.8035 60.5368 28.6876Z" fill="#007893"/>
<path d="M0.0398945 18.4157L21.4171 75.1223C21.4787 75.2439 21.6019 75.3654 21.7251 75.3654H25.2983C25.4215 75.3654 25.5447 75.3047 25.6063 75.1223L43.8416 25.7091C44.2112 24.7367 45.5666 24.7367 45.9362 25.7091L64.1715 75.1223C64.2331 75.2439 64.3563 75.3654 64.4795 75.3654H67.9294C68.0526 75.3654 68.1759 75.3047 68.2375 75.1223L89.9843 18.4157C90.0459 18.1726 89.9227 17.9294 89.6763 17.9294H85.7335C85.6103 17.9294 85.4871 17.9902 85.4255 18.1726L66.6973 68.619C66.5741 68.9229 66.1429 68.9229 66.0197 68.619L46.1826 16.5923C45.7514 15.5591 44.2728 15.5591 43.9032 16.5923L24.1277 68.3151C24.0045 68.619 23.5733 68.619 23.4501 68.3151L4.47551 17.8687C4.4139 17.7471 4.2907 17.6256 4.10588 17.6256L0.286319 17.9294C0.101501 17.9294 -0.083317 18.1726 0.0398945 18.4157Z" fill="#007893"/>
<path d="M42.1167 95.7261C42.1167 95.7261 42.1167 77.4317 42.1167 73.5418C42.1167 69.652 47.846 69.1658 47.846 73.5418C47.846 77.9179 47.846 95.7261 47.846 95.7261H42.1167Z" fill="#007893"/>
<path d="M29.6107 93.3557C29.6107 93.3557 29.6107 77.4317 29.6107 73.5418C29.6107 69.652 35.3401 69.1658 35.3401 73.5418C35.3401 77.9179 35.3401 95.7261 35.3401 95.7261L29.6107 93.3557Z" fill="#007893"/>
<path d="M54.6842 95.7261C54.6842 95.7261 54.6842 77.4317 54.6842 73.5418C54.6842 69.652 60.4135 69.1658 60.4135 73.5418C60.4135 77.9179 60.4135 93.3557 60.4135 93.3557L54.6842 95.7261Z" fill="#007893"/>
</svg>
