<svg width="20" height="20" viewBox="0 0 20 20" fill="none" xmlns="http://www.w3.org/2000/svg">
<path d="M1.34006 14.9998C0.917331 14.2688 0.588725 13.4873 0.362061 12.6738C0.855368 12.4229 1.26965 12.0404 1.55909 11.5687C1.84852 11.097 2.00183 10.5544 2.00203 10.0009C2.00224 9.44749 1.84934 8.90477 1.56026 8.43282C1.27118 7.96088 0.85718 7.57809 0.364061 7.32682C0.816097 5.69231 1.67679 4.19977 2.86506 2.98982C3.32915 3.29155 3.86768 3.45898 4.42104 3.4736C4.9744 3.48822 5.52101 3.34945 6.00039 3.07265C6.47977 2.79586 6.87321 2.39182 7.13719 1.90526C7.40116 1.41871 7.52537 0.868599 7.49606 0.315823C9.13817 -0.108555 10.8613 -0.107867 12.5031 0.317823C12.474 0.870588 12.5985 1.42061 12.8626 1.90703C13.1268 2.39345 13.5204 2.7973 13.9999 3.07388C14.4794 3.35047 15.026 3.48901 15.5793 3.47417C16.1327 3.45934 16.6711 3.2917 17.1351 2.98982C17.7141 3.57982 18.2281 4.25082 18.6601 4.99982C19.0931 5.74882 19.4171 6.52982 19.6381 7.32582C19.1448 7.57672 18.7305 7.9592 18.441 8.43093C18.1516 8.90266 17.9983 9.44526 17.9981 9.99871C17.9979 10.5522 18.1508 11.0949 18.4399 11.5668C18.7289 12.0388 19.1429 12.4216 19.6361 12.6728C19.184 14.3073 18.3233 15.7999 17.1351 17.0098C16.671 16.7081 16.1324 16.5407 15.5791 16.526C15.0257 16.5114 14.4791 16.6502 13.9997 16.927C13.5204 17.2038 13.1269 17.6078 12.8629 18.0944C12.599 18.5809 12.4748 19.131 12.5041 19.6838C10.862 20.1082 9.13883 20.1075 7.49706 19.6818C7.52611 19.1291 7.40166 18.579 7.13748 18.0926C6.8733 17.6062 6.4797 17.2023 6.00023 16.9258C5.52076 16.6492 4.97412 16.5106 4.42079 16.5255C3.86746 16.5403 3.32902 16.7079 2.86506 17.0098C2.27405 16.4068 1.76166 15.7314 1.34006 14.9998ZM7.00006 15.1958C8.06569 15.8105 8.86691 16.7968 9.25006 17.9658C9.74906 18.0128 10.2501 18.0138 10.7491 17.9668C11.1325 16.7977 11.9341 15.8113 13.0001 15.1968C14.0653 14.5805 15.3206 14.3793 16.5251 14.6318C16.8151 14.2238 17.0651 13.7888 17.2731 13.3338C16.4525 12.4173 15.9992 11.23 16.0001 9.99982C16.0001 8.73982 16.4701 7.56282 17.2731 6.66582C17.0636 6.21097 16.8125 5.77646 16.5231 5.36782C15.3193 5.62013 14.0649 5.4193 13.0001 4.80382C11.9344 4.18919 11.1332 3.20281 10.7501 2.03382C10.2511 1.98682 9.75006 1.98582 9.25106 2.03282C8.86766 3.20197 8.06606 4.18838 7.00006 4.80282C5.93484 5.41914 4.67954 5.62034 3.47506 5.36782C3.18563 5.77611 2.93519 6.21069 2.72706 6.66582C3.54763 7.58238 4.00094 8.76961 4.00006 9.99982C4.00006 11.2598 3.53006 12.4368 2.72706 13.3338C2.93653 13.7887 3.1876 14.2232 3.47706 14.6318C4.68078 14.3795 5.93527 14.5803 7.00006 15.1958ZM10.0001 12.9998C9.20441 12.9998 8.44135 12.6838 7.87874 12.1211C7.31613 11.5585 7.00006 10.7955 7.00006 9.99982C7.00006 9.20417 7.31613 8.44111 7.87874 7.8785C8.44135 7.31589 9.20441 6.99982 10.0001 6.99982C10.7957 6.99982 11.5588 7.31589 12.1214 7.8785C12.684 8.44111 13.0001 9.20417 13.0001 9.99982C13.0001 10.7955 12.684 11.5585 12.1214 12.1211C11.5588 12.6838 10.7957 12.9998 10.0001 12.9998ZM10.0001 10.9998C10.2653 10.9998 10.5196 10.8945 10.7072 10.7069C10.8947 10.5194 11.0001 10.265 11.0001 9.99982C11.0001 9.73461 10.8947 9.48025 10.7072 9.29272C10.5196 9.10518 10.2653 8.99982 10.0001 8.99982C9.73484 8.99982 9.48049 9.10518 9.29295 9.29272C9.10542 9.48025 9.00006 9.73461 9.00006 9.99982C9.00006 10.265 9.10542 10.5194 9.29295 10.7069C9.48049 10.8945 9.73484 10.9998 10.0001 10.9998Z" fill="#007893"/>
</svg>
