<svg width="24" height="24" viewBox="0 0 24 24" fill="none" xmlns="http://www.w3.org/2000/svg">
<path d="M23.3686 3.8874L12.2918 0.0492474C12.1023 -0.0164158 11.8975 -0.0164158 11.708 0.0492474L0.631148 3.8874C0.447348 3.95109 0.287487 4.07328 0.17421 4.23667C0.0609337 4.40006 -1.43563e-05 4.59636 2.53655e-09 4.79776V14.3931C2.53655e-09 14.6476 0.0972516 14.8917 0.270361 15.0716C0.44347 15.2516 0.678256 15.3527 0.923069 15.3527C1.16788 15.3527 1.40267 15.2516 1.57578 15.0716C1.74889 14.8917 1.84614 14.6476 1.84614 14.3931V6.12911L5.72187 7.47127C4.69214 9.2006 4.36469 11.284 4.81142 13.2641C5.25815 15.2442 6.44255 16.9591 8.10455 18.0322C6.02764 18.879 4.23227 20.4106 2.91921 22.5048C2.85092 22.6103 2.80348 22.7289 2.77966 22.8536C2.75584 22.9783 2.75611 23.1068 2.78045 23.2314C2.80479 23.356 2.85271 23.4743 2.92144 23.5795C2.99016 23.6847 3.07832 23.7747 3.18078 23.8442C3.28325 23.9136 3.39797 23.9612 3.51829 23.9842C3.6386 24.0072 3.76211 24.0051 3.88164 23.978C4.00116 23.9509 4.11432 23.8994 4.21452 23.8265C4.31473 23.7535 4.39999 23.6606 4.46535 23.5531C6.20418 20.78 8.95031 19.1908 11.9999 19.1908C15.0495 19.1908 17.7956 20.78 19.5344 23.5531C19.6698 23.7623 19.879 23.9077 20.1166 23.9578C20.3543 24.008 20.6014 23.9589 20.8046 23.8212C21.0077 23.6834 21.1505 23.4681 21.2022 23.2218C21.2538 22.9755 21.2102 22.7179 21.0806 22.5048C19.7675 20.4106 17.9652 18.879 15.8952 18.0322C17.5557 16.9591 18.7389 15.2454 19.1856 13.2667C19.6322 11.2881 19.3058 9.20609 18.2779 7.47726L23.3686 5.71412C23.5525 5.65046 23.7124 5.52828 23.8257 5.36489C23.939 5.2015 24 5.00518 24 4.80375C24 4.60233 23.939 4.40601 23.8257 4.24262C23.7124 4.07923 23.5525 3.95705 23.3686 3.89339V3.8874ZM17.5383 11.5145C17.5386 12.4247 17.3312 13.322 16.9333 14.1327C16.5353 14.9435 15.9581 15.6446 15.249 16.1786C14.5399 16.7125 13.7192 17.0641 12.854 17.2045C11.9889 17.3449 11.1041 17.27 10.2722 16.9861C9.4403 16.7022 8.68501 16.2172 8.0683 15.5711C7.4516 14.925 6.99105 14.1361 6.72445 13.2691C6.45785 12.4021 6.39279 11.4818 6.53462 10.5836C6.67644 9.68547 7.0211 8.83506 7.54032 8.10216L11.708 9.54147C11.8975 9.60713 12.1023 9.60713 12.2918 9.54147L16.4595 8.10216C17.1608 9.09048 17.5389 10.2864 17.5383 11.5145ZM11.9999 7.62479L3.84227 4.79776L11.9999 1.97072L20.1575 4.79776L11.9999 7.62479Z" fill="#007893"/>
</svg>
