<svg width="29" height="28" viewBox="0 0 29 28" fill="none" xmlns="http://www.w3.org/2000/svg">
<g clip-path="url(#clip0_2001_514)">
<path d="M0.5 0H28.5V28H0.5V0Z" fill="#FBFBFB"/>
<path d="M5.16667 25.6665C5.16667 23.1911 6.15 20.8172 7.90034 19.0668C9.65068 17.3165 12.0247 16.3332 14.5 16.3332C16.9754 16.3332 19.3493 17.3165 21.0997 19.0668C22.85 20.8172 23.8333 23.1911 23.8333 25.6665H21.5C21.5 23.81 20.7625 22.0295 19.4498 20.7168C18.137 19.404 16.3565 18.6665 14.5 18.6665C12.6435 18.6665 10.863 19.404 9.55026 20.7168C8.2375 22.0295 7.50001 23.81 7.50001 25.6665H5.16667ZM14.5 15.1665C10.6325 15.1665 7.50001 12.034 7.50001 8.1665C7.50001 4.299 10.6325 1.1665 14.5 1.1665C18.3675 1.1665 21.5 4.299 21.5 8.1665C21.5 12.034 18.3675 15.1665 14.5 15.1665ZM14.5 12.8332C17.0783 12.8332 19.1667 10.7448 19.1667 8.1665C19.1667 5.58817 17.0783 3.49984 14.5 3.49984C11.9217 3.49984 9.83334 5.58817 9.83334 8.1665C9.83334 10.7448 11.9217 12.8332 14.5 12.8332Z" fill="#757575"/>
</g>
<defs>
<clipPath id="clip0_2001_514">
<rect width="28" height="28" fill="white" transform="translate(0.5)"/>
</clipPath>
</defs>
</svg>
